# Blender v2.92.0 OBJ File: 'pig-hand-fist-R&L-gauntlet.blend'
# www.blender.org
mtllib pig-gauntlet.mtl
o Cube
v -1.524977 0.526955 -0.714792
v -1.524977 1.000000 -0.535804
v 0.030894 0.526955 -0.714792
v -0.136995 1.000000 -0.535804
v -1.419211 0.526955 -0.351439
v -1.419211 1.000000 -0.351439
v 0.382399 0.526955 -0.351439
v 0.040737 1.000000 -0.351439
v -2.820065 1.000000 -0.351439
v -2.590361 1.000000 -0.535804
v -2.590361 0.526955 -0.714792
v -3.054294 0.526955 -0.351439
v -1.599167 1.120416 -0.336696
v -1.676934 1.120416 -0.472254
v -2.629173 1.120416 -0.336696
v -2.460278 1.120416 -0.472254
v -1.524977 0.526955 0.714792
v -1.524977 1.000000 0.535804
v 0.030894 0.526955 0.714792
v -0.136995 1.000000 0.535804
v -1.419211 0.526955 0.351439
v -1.419211 1.000000 0.351439
v 0.382399 0.526955 0.351439
v 0.040737 1.000000 0.351439
v -2.820065 1.000000 0.351439
v -2.590361 1.000000 0.535804
v -2.590361 0.526955 0.714792
v -3.054294 0.526955 0.351439
v -1.419211 0.526955 0.000000
v -1.419211 1.000000 0.000000
v 0.473138 0.526955 0.000000
v 0.102190 1.000000 0.000000
v -3.054294 0.526955 0.000000
v -2.820065 1.000000 0.000000
v -1.599167 1.120416 0.336696
v -1.676934 1.120416 0.472254
v -1.599167 1.120416 0.000000
v -2.629173 1.120416 0.336696
v -2.460278 1.120416 0.472254
v -2.629173 1.120416 0.000000
vt 0.375000 0.250000
vt 0.625000 0.250000
vt 0.625000 0.500000
vt 0.375000 0.500000
vt 0.875000 0.500000
vt 0.875000 0.583333
vt 0.625000 0.564384
vt 0.125000 0.500000
vt 0.375000 0.564384
vt 0.125000 0.583333
vt 0.875000 0.500000
vt 0.875000 0.500000
vt 0.875000 0.500000
vt 0.375000 0.166667
vt 0.625000 0.166667
vt 0.625000 0.250000
vt 0.375000 0.250000
vt 0.375000 0.125000
vt 0.625000 0.125000
vt 0.125000 0.583333
vt 0.125000 0.500000
vt 0.875000 0.583333
vt 0.125000 0.625000
vt 0.125000 0.625000
vt 0.625000 0.625000
vt 0.375000 0.625000
vt 0.875000 0.625000
vt 0.875000 0.583333
vt 0.875000 0.625000
vt 0.875000 0.625000
vt 0.625000 0.166667
vt 0.625000 0.250000
vt 0.625000 0.125000
vt 0.375000 0.250000
vt 0.375000 0.500000
vt 0.625000 0.500000
vt 0.625000 0.250000
vt 0.625000 0.564384
vt 0.875000 0.583333
vt 0.875000 0.500000
vt 0.125000 0.500000
vt 0.125000 0.583333
vt 0.375000 0.564384
vt 0.875000 0.500000
vt 0.875000 0.500000
vt 0.875000 0.500000
vt 0.375000 0.166667
vt 0.375000 0.250000
vt 0.625000 0.250000
vt 0.625000 0.166667
vt 0.125000 0.500000
vt 0.125000 0.583333
vt 0.875000 0.583333
vt 0.875000 0.583333
vt 0.625000 0.250000
vt 0.625000 0.166667
vn 0.0000 0.3539 -0.9353
vn 0.0000 1.0000 -0.0000
vn 0.0000 -1.0000 0.0000
vn 0.6383 0.4605 -0.6168
vn 0.0000 0.4667 -0.8844
vn -0.5933 0.2890 -0.7513
vn -0.8962 0.4437 0.0000
vn 0.5145 0.8051 -0.2952
vn 0.7871 0.5928 -0.1704
vn 0.5561 0.8311 0.0000
vn -0.4236 0.7362 -0.5278
vn -0.5335 0.8458 0.0000
vn 0.0000 0.3539 0.9353
vn 0.6383 0.4605 0.6168
vn 0.0000 0.4667 0.8844
vn -0.5933 0.2890 0.7513
vn 0.5145 0.8051 0.2952
vn 0.7871 0.5928 0.1704
vn -0.4236 0.7362 0.5278
usemtl None
s off
f 1/1/1 2/2/1 4/3/1 3/4/1
f 4/3/2 2/5/2 6/6/2 8/7/2
f 1/8/3 3/4/3 7/9/3 5/10/3
f 3/4/4 4/3/4 8/7/4 7/9/4
f 2/5/5 10/11/5 16/12/5 14/13/5
f 12/14/6 9/15/6 10/16/6 11/17/6
f 33/18/7 34/19/7 9/15/7 12/14/7
f 1/8/3 5/10/3 12/20/3 11/21/3
f 6/6/8 2/5/8 14/13/8 13/22/8
f 5/10/3 29/23/3 33/24/3 12/20/3
f 7/9/9 8/7/9 32/25/9 31/26/9
f 5/10/3 7/9/3 31/26/3 29/23/3
f 8/7/2 6/6/2 30/27/2 32/25/2
f 13/22/2 14/13/2 16/12/2 15/28/2
f 37/29/2 13/22/2 15/28/2 40/30/2
f 30/27/10 6/6/10 13/22/10 37/29/10
f 10/16/11 9/15/11 15/31/11 16/32/11
f 9/15/12 34/19/12 40/33/12 15/31/12
f 1/8/1 11/21/1 10/16/1 2/5/1
f 17/34/13 19/35/13 20/36/13 18/37/13
f 20/36/2 24/38/2 22/39/2 18/40/2
f 17/41/3 21/42/3 23/43/3 19/35/3
f 19/35/14 23/43/14 24/38/14 20/36/14
f 18/40/15 36/44/15 39/45/15 26/46/15
f 28/47/16 27/48/16 26/49/16 25/50/16
f 33/18/7 28/47/7 25/50/7 34/19/7
f 17/41/3 27/51/3 28/52/3 21/42/3
f 22/39/17 35/53/17 36/44/17 18/40/17
f 21/42/3 28/52/3 33/24/3 29/23/3
f 23/43/18 31/26/18 32/25/18 24/38/18
f 21/42/3 29/23/3 31/26/3 23/43/3
f 24/38/2 32/25/2 30/27/2 22/39/2
f 35/53/2 38/54/2 39/45/2 36/44/2
f 37/29/2 40/30/2 38/54/2 35/53/2
f 30/27/10 37/29/10 35/53/10 22/39/10
f 26/49/19 39/55/19 38/56/19 25/50/19
f 25/50/12 38/56/12 40/33/12 34/19/12
f 17/41/13 18/40/13 26/49/13 27/51/13
