# Blender v2.92.0 OBJ File: 'pig-hand-fist-R&L-gauntlet.blend'
# www.blender.org
mtllib pig-gauntlet-strap.mtl
o Torus
v -2.061774 -1.028020 0.000000
v -1.760999 -0.999210 0.000000
v -1.540816 -0.920501 0.000000
v -1.460224 -0.812982 0.000000
v -1.540816 -0.705464 0.000000
v -1.760999 -0.626754 0.000000
v -2.061774 -0.597945 0.000000
v -2.362550 -0.626754 0.000000
v -2.582733 -0.705464 0.000000
v -2.663325 -0.812982 0.000000
v -2.582733 -0.920501 0.000000
v -2.362550 -0.999210 0.000000
v -2.061774 -0.935065 -0.533871
v -1.760999 -0.908746 -0.519566
v -1.540816 -0.836842 -0.480484
v -1.460224 -0.738618 -0.427097
v -1.540816 -0.640395 -0.373710
v -1.760999 -0.568491 -0.334628
v -2.061774 -0.542172 -0.320323
v -2.362550 -0.568491 -0.334628
v -2.582733 -0.640395 -0.373710
v -2.663325 -0.738619 -0.427097
v -2.582733 -0.836842 -0.480484
v -2.362550 -0.908746 -0.519566
v -2.061774 -0.672273 -0.975432
v -1.760999 -0.652996 -0.949295
v -1.540816 -0.600329 -0.877889
v -1.460224 -0.528385 -0.780345
v -1.540816 -0.456441 -0.682802
v -1.760999 -0.403774 -0.611396
v -2.061774 -0.384497 -0.585259
v -2.362550 -0.403774 -0.611396
v -2.582733 -0.456441 -0.682802
v -2.663325 -0.528385 -0.780345
v -2.582733 -0.600329 -0.877889
v -2.362550 -0.652996 -0.949295
v -2.061774 -0.285084 -1.248331
v -1.760999 -0.276181 -1.214882
v -1.540816 -0.251858 -1.123498
v -1.460224 -0.218633 -0.998665
v -1.540816 -0.185408 -0.873832
v -1.760999 -0.161086 -0.782447
v -2.061774 -0.152183 -0.748998
v -2.362550 -0.161086 -0.782447
v -2.582733 -0.185408 -0.873832
v -2.663325 -0.218633 -0.998665
v -2.582733 -0.251859 -1.123498
v -2.362550 -0.276181 -1.214882
v -2.061774 0.159556 -1.305382
v -1.760999 0.156545 -1.270405
v -1.540816 0.148317 -1.174844
v -1.460224 0.137078 -1.044306
v -1.540816 0.125840 -0.913768
v -1.760999 0.117612 -0.818207
v -2.061774 0.114601 -0.783229
v -2.362550 0.117612 -0.818207
v -2.582733 0.125840 -0.913768
v -2.663325 0.137078 -1.044306
v -2.582733 0.148317 -1.174844
v -2.362550 0.156545 -1.270405
v -2.061774 0.584762 -1.136721
v -1.760999 0.570357 -1.106263
v -1.540816 0.531002 -1.023049
v -1.460224 0.477243 -0.909377
v -1.540816 0.423484 -0.795705
v -1.760999 0.384129 -0.712491
v -2.061774 0.369724 -0.682033
v -2.362550 0.384129 -0.712491
v -2.582733 0.423484 -0.795705
v -2.663325 0.477243 -0.909377
v -2.582733 0.531002 -1.023049
v -2.362550 0.570357 -1.106263
v -2.061774 0.917014 -0.771511
v -1.760999 0.893706 -0.750838
v -1.540816 0.830029 -0.694359
v -1.460224 0.743044 -0.617208
v -1.540816 0.656060 -0.540057
v -1.760999 0.592383 -0.483579
v -2.061774 0.569075 -0.462906
v -2.362550 0.592383 -0.483579
v -2.582733 0.656060 -0.540057
v -2.663325 0.743044 -0.617208
v -2.582733 0.830029 -0.694359
v -2.362550 0.893706 -0.750838
v -2.061774 1.098861 -0.272899
v -1.760999 1.070680 -0.265587
v -1.540816 0.993691 -0.245609
v -1.460224 0.888522 -0.218320
v -1.540816 0.783353 -0.191030
v -1.760999 0.706363 -0.171052
v -2.061774 0.678183 -0.163740
v -2.362550 0.706363 -0.171052
v -2.582733 0.783353 -0.191030
v -2.663325 0.888522 -0.218320
v -2.582733 0.993691 -0.245609
v -2.362550 1.070680 -0.265587
v -2.061774 1.098861 0.272899
v -1.760999 1.070680 0.265587
v -1.540816 0.993691 0.245609
v -1.460224 0.888522 0.218320
v -1.540816 0.783353 0.191030
v -1.760999 0.706363 0.171052
v -2.061774 0.678183 0.163740
v -2.362550 0.706363 0.171052
v -2.582733 0.783353 0.191030
v -2.663325 0.888522 0.218320
v -2.582733 0.993691 0.245609
v -2.362550 1.070680 0.265587
v -2.061774 0.917014 0.771511
v -1.760999 0.893706 0.750838
v -1.540816 0.830029 0.694359
v -1.460224 0.743044 0.617208
v -1.540816 0.656060 0.540057
v -1.760999 0.592383 0.483579
v -2.061774 0.569075 0.462906
v -2.362550 0.592383 0.483579
v -2.582733 0.656060 0.540057
v -2.663325 0.743044 0.617208
v -2.582733 0.830029 0.694359
v -2.362550 0.893706 0.750838
v -2.061774 0.584762 1.136721
v -1.760999 0.570357 1.106263
v -1.540816 0.531002 1.023049
v -1.460224 0.477243 0.909377
v -1.540816 0.423484 0.795705
v -1.760999 0.384129 0.712491
v -2.061774 0.369724 0.682033
v -2.362550 0.384129 0.712491
v -2.582733 0.423484 0.795705
v -2.663325 0.477243 0.909377
v -2.582733 0.531002 1.023049
v -2.362550 0.570357 1.106263
v -2.061774 0.159556 1.305382
v -1.760999 0.156545 1.270405
v -1.540816 0.148317 1.174844
v -1.460224 0.137078 1.044306
v -1.540816 0.125840 0.913768
v -1.760999 0.117612 0.818207
v -2.061774 0.114601 0.783229
v -2.362550 0.117612 0.818207
v -2.582733 0.125840 0.913768
v -2.663325 0.137078 1.044306
v -2.582733 0.148317 1.174844
v -2.362550 0.156545 1.270405
v -2.061774 -0.285084 1.248331
v -1.760999 -0.276181 1.214882
v -1.540816 -0.251858 1.123498
v -1.460224 -0.218633 0.998665
v -1.540816 -0.185408 0.873832
v -1.760999 -0.161086 0.782447
v -2.061774 -0.152183 0.748998
v -2.362550 -0.161086 0.782447
v -2.582733 -0.185408 0.873832
v -2.663325 -0.218633 0.998665
v -2.582733 -0.251859 1.123498
v -2.362550 -0.276181 1.214882
v -2.061774 -0.672273 0.975432
v -1.760999 -0.652996 0.949295
v -1.540816 -0.600329 0.877889
v -1.460224 -0.528385 0.780345
v -1.540816 -0.456441 0.682802
v -1.760999 -0.403774 0.611396
v -2.061774 -0.384497 0.585259
v -2.362550 -0.403774 0.611396
v -2.582733 -0.456441 0.682802
v -2.663325 -0.528385 0.780345
v -2.582733 -0.600329 0.877889
v -2.362550 -0.652996 0.949295
v -2.061774 -0.935065 0.533871
v -1.760999 -0.908746 0.519566
v -1.540816 -0.836842 0.480484
v -1.460224 -0.738619 0.427097
v -1.540816 -0.640395 0.373710
v -1.760999 -0.568491 0.334628
v -2.061774 -0.542172 0.320323
v -2.362550 -0.568491 0.334628
v -2.582733 -0.640395 0.373710
v -2.663325 -0.738619 0.427097
v -2.582733 -0.836842 0.480484
v -2.362550 -0.908746 0.519566
vt 0.533333 0.500000
vt 0.600000 0.500000
vt 0.600000 0.583333
vt 0.533333 0.583333
vt 0.600000 0.666667
vt 0.533333 0.666667
vt 0.600000 0.750000
vt 0.533333 0.750000
vt 0.600000 0.833333
vt 0.533333 0.833333
vt 0.600000 0.916667
vt 0.533333 0.916667
vt 0.600000 1.000000
vt 0.533333 1.000000
vt 0.533333 0.000000
vt 0.600000 0.000000
vt 0.600000 0.083333
vt 0.533333 0.083333
vt 0.600000 0.166667
vt 0.533333 0.166667
vt 0.600000 0.250000
vt 0.533333 0.250000
vt 0.600000 0.333333
vt 0.533333 0.333333
vt 0.600000 0.416667
vt 0.533333 0.416667
vt 0.666667 0.500000
vt 0.666667 0.583333
vt 0.666667 0.666667
vt 0.666667 0.750000
vt 0.666667 0.833333
vt 0.666667 0.916667
vt 0.666667 1.000000
vt 0.666667 0.000000
vt 0.666667 0.083333
vt 0.666667 0.166667
vt 0.666667 0.250000
vt 0.666667 0.333333
vt 0.666667 0.416667
vt 0.733333 0.500000
vt 0.733333 0.583333
vt 0.733333 0.666667
vt 0.733333 0.750000
vt 0.733333 0.833333
vt 0.733333 0.916667
vt 0.733333 1.000000
vt 0.733333 0.000000
vt 0.733333 0.083333
vt 0.733333 0.166667
vt 0.733333 0.250000
vt 0.733333 0.333333
vt 0.733333 0.416667
vt 0.800000 0.500000
vt 0.800000 0.583333
vt 0.800000 0.666667
vt 0.800000 0.750000
vt 0.800000 0.833333
vt 0.800000 0.916667
vt 0.800000 1.000000
vt 0.800000 0.000000
vt 0.800000 0.083333
vt 0.800000 0.166667
vt 0.800000 0.250000
vt 0.800000 0.333333
vt 0.800000 0.416667
vt 0.866667 0.500000
vt 0.866667 0.583333
vt 0.866667 0.666667
vt 0.866667 0.750000
vt 0.866667 0.833333
vt 0.866667 0.916667
vt 0.866667 1.000000
vt 0.866667 0.000000
vt 0.866667 0.083333
vt 0.866667 0.166667
vt 0.866667 0.250000
vt 0.866667 0.333333
vt 0.866667 0.416667
vt 0.933333 0.500000
vt 0.933333 0.583333
vt 0.933333 0.666667
vt 0.933333 0.750000
vt 0.933333 0.833333
vt 0.933333 0.916667
vt 0.933333 1.000000
vt 0.933333 0.000000
vt 0.933333 0.083333
vt 0.933333 0.166667
vt 0.933333 0.250000
vt 0.933333 0.333333
vt 0.933333 0.416667
vt 1.000000 0.500000
vt 1.000000 0.583333
vt 1.000000 0.666667
vt 1.000000 0.750000
vt 1.000000 0.833333
vt 1.000000 0.916667
vt 1.000000 1.000000
vt 1.000000 0.000000
vt 1.000000 0.083333
vt 1.000000 0.166667
vt 1.000000 0.250000
vt 1.000000 0.333333
vt 1.000000 0.416667
vt -0.000000 0.500000
vt 0.066667 0.500000
vt 0.066667 0.583333
vt -0.000000 0.583333
vt 0.066667 0.666667
vt -0.000000 0.666667
vt 0.066667 0.750000
vt -0.000000 0.750000
vt 0.066667 0.833333
vt -0.000000 0.833333
vt 0.066667 0.916667
vt -0.000000 0.916667
vt 0.066667 1.000000
vt -0.000000 1.000000
vt -0.000000 0.000000
vt 0.066667 0.000000
vt 0.066667 0.083333
vt -0.000000 0.083333
vt 0.066667 0.166667
vt -0.000000 0.166667
vt 0.066667 0.250000
vt -0.000000 0.250000
vt 0.066667 0.333333
vt -0.000000 0.333333
vt 0.066667 0.416667
vt -0.000000 0.416667
vt 0.133333 0.500000
vt 0.133333 0.583333
vt 0.133333 0.666667
vt 0.133333 0.750000
vt 0.133333 0.833333
vt 0.133333 0.916667
vt 0.133333 1.000000
vt 0.133333 0.000000
vt 0.133333 0.083333
vt 0.133333 0.166667
vt 0.133333 0.250000
vt 0.133333 0.333333
vt 0.133333 0.416667
vt 0.200000 0.500000
vt 0.200000 0.583333
vt 0.200000 0.666667
vt 0.200000 0.750000
vt 0.200000 0.833333
vt 0.200000 0.916667
vt 0.200000 1.000000
vt 0.200000 0.000000
vt 0.200000 0.083333
vt 0.200000 0.166667
vt 0.200000 0.250000
vt 0.200000 0.333333
vt 0.200000 0.416667
vt 0.266667 0.500000
vt 0.266667 0.583333
vt 0.266667 0.666667
vt 0.266667 0.750000
vt 0.266667 0.833333
vt 0.266667 0.916667
vt 0.266667 1.000000
vt 0.266667 0.000000
vt 0.266667 0.083333
vt 0.266667 0.166667
vt 0.266667 0.250000
vt 0.266667 0.333333
vt 0.266667 0.416667
vt 0.333333 0.500000
vt 0.333333 0.583333
vt 0.333333 0.666667
vt 0.333333 0.750000
vt 0.333333 0.833333
vt 0.333333 0.916667
vt 0.333333 1.000000
vt 0.333333 0.000000
vt 0.333333 0.083333
vt 0.333333 0.166667
vt 0.333333 0.250000
vt 0.333333 0.333333
vt 0.333333 0.416667
vt 0.400000 0.500000
vt 0.400000 0.583333
vt 0.400000 0.666667
vt 0.400000 0.750000
vt 0.400000 0.833333
vt 0.400000 0.916667
vt 0.400000 1.000000
vt 0.400000 0.000000
vt 0.400000 0.083333
vt 0.400000 0.166667
vt 0.400000 0.250000
vt 0.400000 0.333333
vt 0.400000 0.416667
vt 0.466667 0.500000
vt 0.466667 0.583333
vt 0.466667 0.666667
vt 0.466667 0.750000
vt 0.466667 0.833333
vt 0.466667 0.916667
vt 0.466667 1.000000
vt 0.466667 0.000000
vt 0.466667 0.083333
vt 0.466667 0.166667
vt 0.466667 0.250000
vt 0.466667 0.333333
vt 0.466667 0.416667
vn 0.0939 -0.9808 -0.1708
vn 0.3322 -0.9292 -0.1618
vn 0.7958 -0.5965 -0.1039
vn 0.7958 0.5965 0.1039
vn 0.3322 0.9292 0.1618
vn 0.0939 0.9808 0.1708
vn -0.0939 0.9808 0.1708
vn -0.3322 0.9292 0.1618
vn -0.7958 0.5965 0.1039
vn -0.7958 -0.5965 -0.1039
vn -0.3322 -0.9292 -0.1618
vn -0.0939 -0.9808 -0.1708
vn 0.0990 -0.8551 -0.5089
vn 0.3482 -0.8056 -0.4794
vn 0.8110 -0.5028 -0.2992
vn 0.8110 0.5028 0.2992
vn 0.3482 0.8056 0.4794
vn 0.0990 0.8551 0.5089
vn -0.0990 0.8551 0.5089
vn -0.3482 0.8056 0.4794
vn -0.8110 0.5028 0.2992
vn -0.8110 -0.5028 -0.2992
vn -0.3482 -0.8056 -0.4794
vn -0.0990 -0.8551 -0.5089
vn 0.1073 -0.5728 -0.8127
vn 0.3737 -0.5344 -0.7582
vn 0.8327 -0.3190 -0.4527
vn 0.8327 0.3190 0.4527
vn 0.3737 0.5344 0.7582
vn 0.1073 0.5728 0.8127
vn -0.1073 0.5728 0.8127
vn -0.3737 0.5344 0.7582
vn -0.8327 0.3190 0.4527
vn -0.8327 -0.3190 -0.4527
vn -0.3737 -0.5344 -0.7582
vn -0.1073 -0.5728 -0.8127
vn 0.1133 -0.1264 -0.9855
vn 0.3917 -0.1171 -0.9126
vn 0.8463 -0.0678 -0.5283
vn 0.8463 0.0678 0.5283
vn 0.3917 0.1171 0.9126
vn 0.1133 0.1264 0.9855
vn -0.1133 0.1264 0.9855
vn -0.3917 0.1171 0.9126
vn -0.8463 0.0678 0.5283
vn -0.8463 -0.0678 -0.5283
vn -0.3917 -0.1171 -0.9126
vn -0.1133 -0.1264 -0.9855
vn 0.1111 0.3664 -0.9238
vn 0.3850 0.3403 -0.8579
vn 0.8414 0.1992 -0.5023
vn 0.8414 -0.1992 0.5023
vn 0.3850 -0.3403 0.8579
vn 0.1111 -0.3664 0.9238
vn -0.1111 -0.3664 0.9238
vn -0.3850 -0.3403 0.8579
vn -0.8414 -0.1993 0.5023
vn -0.8414 0.1992 -0.5023
vn -0.3850 0.3403 -0.8579
vn -0.1111 0.3664 -0.9238
vn 0.1030 0.7358 -0.6694
vn 0.3605 0.6899 -0.6277
vn 0.8218 0.4214 -0.3834
vn 0.8218 -0.4214 0.3834
vn 0.3605 -0.6899 0.6277
vn 0.1030 -0.7358 0.6694
vn -0.1030 -0.7358 0.6694
vn -0.3605 -0.6899 0.6277
vn -0.8218 -0.4214 0.3834
vn -0.8218 0.4214 -0.3834
vn -0.3605 0.6899 -0.6277
vn -0.1030 0.7358 -0.6694
vn 0.0959 0.9351 -0.3411
vn 0.3384 0.8841 -0.3224
vn 0.8019 0.5613 -0.2047
vn 0.8019 -0.5613 0.2047
vn 0.3384 -0.8841 0.3224
vn 0.0959 -0.9351 0.3411
vn -0.0959 -0.9351 0.3411
vn -0.3384 -0.8841 0.3224
vn -0.8019 -0.5613 0.2047
vn -0.8019 0.5613 -0.2047
vn -0.3384 0.8841 -0.3224
vn -0.0959 0.9351 -0.3411
vn 0.0933 0.9956 0.0000
vn 0.3301 0.9440 0.0000
vn 0.7937 0.6083 0.0000
vn 0.7937 -0.6083 0.0000
vn 0.3301 -0.9440 0.0000
vn 0.0933 -0.9956 0.0000
vn -0.0933 -0.9956 0.0000
vn -0.3301 -0.9440 0.0000
vn -0.7937 -0.6083 0.0000
vn -0.7937 0.6083 0.0000
vn -0.3301 0.9440 0.0000
vn -0.0933 0.9956 0.0000
vn 0.0959 0.9351 0.3411
vn 0.3384 0.8841 0.3224
vn 0.8019 0.5613 0.2047
vn 0.8019 -0.5613 -0.2047
vn 0.3384 -0.8841 -0.3224
vn 0.0959 -0.9351 -0.3411
vn -0.0959 -0.9351 -0.3411
vn -0.3384 -0.8841 -0.3224
vn -0.8019 -0.5613 -0.2047
vn -0.8019 0.5613 0.2047
vn -0.3384 0.8841 0.3224
vn -0.0959 0.9351 0.3411
vn 0.1030 0.7358 0.6694
vn 0.3605 0.6899 0.6277
vn 0.8218 0.4214 0.3834
vn 0.8218 -0.4214 -0.3834
vn 0.3605 -0.6899 -0.6277
vn 0.1030 -0.7358 -0.6694
vn -0.1030 -0.7358 -0.6694
vn -0.3605 -0.6899 -0.6277
vn -0.8218 -0.4214 -0.3834
vn -0.8218 0.4214 0.3834
vn -0.3605 0.6899 0.6277
vn -0.1030 0.7358 0.6694
vn 0.1111 0.3664 0.9238
vn 0.3850 0.3403 0.8579
vn 0.8414 0.1992 0.5023
vn 0.8414 -0.1992 -0.5023
vn 0.3850 -0.3403 -0.8579
vn 0.1111 -0.3664 -0.9238
vn -0.1111 -0.3664 -0.9238
vn -0.3850 -0.3403 -0.8579
vn -0.8414 -0.1992 -0.5023
vn -0.8414 0.1992 0.5023
vn -0.3850 0.3403 0.8579
vn -0.1111 0.3664 0.9238
vn 0.1133 -0.1264 0.9855
vn 0.3917 -0.1171 0.9126
vn 0.8463 -0.0678 0.5283
vn 0.8463 0.0678 -0.5283
vn 0.3917 0.1171 -0.9126
vn 0.1133 0.1264 -0.9855
vn -0.1133 0.1264 -0.9855
vn -0.3917 0.1171 -0.9126
vn -0.8463 0.0678 -0.5283
vn -0.8463 -0.0678 0.5283
vn -0.3917 -0.1171 0.9126
vn -0.1133 -0.1264 0.9855
vn 0.1073 -0.5728 0.8127
vn 0.3737 -0.5344 0.7582
vn 0.8327 -0.3190 0.4527
vn 0.8327 0.3190 -0.4527
vn 0.3737 0.5344 -0.7582
vn 0.1073 0.5728 -0.8127
vn -0.1073 0.5728 -0.8127
vn -0.3737 0.5344 -0.7582
vn -0.8327 0.3190 -0.4527
vn -0.8327 -0.3190 0.4527
vn -0.3737 -0.5344 0.7582
vn -0.1073 -0.5728 0.8127
vn 0.0990 -0.8551 0.5089
vn 0.3482 -0.8056 0.4794
vn 0.8110 -0.5028 0.2992
vn 0.8110 0.5028 -0.2992
vn 0.3482 0.8056 -0.4794
vn 0.0990 0.8551 -0.5089
vn -0.0990 0.8551 -0.5089
vn -0.3482 0.8056 -0.4794
vn -0.8110 0.5028 -0.2992
vn -0.8110 -0.5028 0.2992
vn -0.3482 -0.8056 0.4794
vn -0.0990 -0.8551 0.5089
vn 0.0939 -0.9808 0.1708
vn 0.3322 -0.9292 0.1618
vn 0.7958 -0.5965 0.1039
vn 0.7958 0.5965 -0.1039
vn 0.3322 0.9292 -0.1618
vn 0.0939 0.9808 -0.1708
vn -0.0939 0.9808 -0.1708
vn -0.3322 0.9292 -0.1618
vn -0.7958 0.5965 -0.1039
vn -0.7958 -0.5965 0.1039
vn -0.3322 -0.9292 0.1618
vn -0.0939 -0.9808 0.1708
usemtl None
s off
f 1/1/1 13/2/1 14/3/1 2/4/1
f 2/4/2 14/3/2 15/5/2 3/6/2
f 3/6/3 15/5/3 16/7/3 4/8/3
f 4/8/4 16/7/4 17/9/4 5/10/4
f 5/10/5 17/9/5 18/11/5 6/12/5
f 6/12/6 18/11/6 19/13/6 7/14/6
f 7/15/7 19/16/7 20/17/7 8/18/7
f 8/18/8 20/17/8 21/19/8 9/20/8
f 9/20/9 21/19/9 22/21/9 10/22/9
f 10/22/10 22/21/10 23/23/10 11/24/10
f 11/24/11 23/23/11 24/25/11 12/26/11
f 12/26/12 24/25/12 13/2/12 1/1/12
f 13/2/13 25/27/13 26/28/13 14/3/13
f 14/3/14 26/28/14 27/29/14 15/5/14
f 15/5/15 27/29/15 28/30/15 16/7/15
f 16/7/16 28/30/16 29/31/16 17/9/16
f 17/9/17 29/31/17 30/32/17 18/11/17
f 18/11/18 30/32/18 31/33/18 19/13/18
f 19/16/19 31/34/19 32/35/19 20/17/19
f 20/17/20 32/35/20 33/36/20 21/19/20
f 21/19/21 33/36/21 34/37/21 22/21/21
f 22/21/22 34/37/22 35/38/22 23/23/22
f 23/23/23 35/38/23 36/39/23 24/25/23
f 24/25/24 36/39/24 25/27/24 13/2/24
f 25/27/25 37/40/25 38/41/25 26/28/25
f 26/28/26 38/41/26 39/42/26 27/29/26
f 27/29/27 39/42/27 40/43/27 28/30/27
f 28/30/28 40/43/28 41/44/28 29/31/28
f 29/31/29 41/44/29 42/45/29 30/32/29
f 30/32/30 42/45/30 43/46/30 31/33/30
f 31/34/31 43/47/31 44/48/31 32/35/31
f 32/35/32 44/48/32 45/49/32 33/36/32
f 33/36/33 45/49/33 46/50/33 34/37/33
f 34/37/34 46/50/34 47/51/34 35/38/34
f 35/38/35 47/51/35 48/52/35 36/39/35
f 36/39/36 48/52/36 37/40/36 25/27/36
f 37/40/37 49/53/37 50/54/37 38/41/37
f 38/41/38 50/54/38 51/55/38 39/42/38
f 39/42/39 51/55/39 52/56/39 40/43/39
f 40/43/40 52/56/40 53/57/40 41/44/40
f 41/44/41 53/57/41 54/58/41 42/45/41
f 42/45/42 54/58/42 55/59/42 43/46/42
f 43/47/43 55/60/43 56/61/43 44/48/43
f 44/48/44 56/61/44 57/62/44 45/49/44
f 45/49/45 57/62/45 58/63/45 46/50/45
f 46/50/46 58/63/46 59/64/46 47/51/46
f 47/51/47 59/64/47 60/65/47 48/52/47
f 48/52/48 60/65/48 49/53/48 37/40/48
f 49/53/49 61/66/49 62/67/49 50/54/49
f 50/54/50 62/67/50 63/68/50 51/55/50
f 51/55/51 63/68/51 64/69/51 52/56/51
f 52/56/52 64/69/52 65/70/52 53/57/52
f 53/57/53 65/70/53 66/71/53 54/58/53
f 54/58/54 66/71/54 67/72/54 55/59/54
f 55/60/55 67/73/55 68/74/55 56/61/55
f 56/61/56 68/74/56 69/75/56 57/62/56
f 57/62/57 69/75/57 70/76/57 58/63/57
f 58/63/58 70/76/58 71/77/58 59/64/58
f 59/64/59 71/77/59 72/78/59 60/65/59
f 60/65/60 72/78/60 61/66/60 49/53/60
f 61/66/61 73/79/61 74/80/61 62/67/61
f 62/67/62 74/80/62 75/81/62 63/68/62
f 63/68/63 75/81/63 76/82/63 64/69/63
f 64/69/64 76/82/64 77/83/64 65/70/64
f 65/70/65 77/83/65 78/84/65 66/71/65
f 66/71/66 78/84/66 79/85/66 67/72/66
f 67/73/67 79/86/67 80/87/67 68/74/67
f 68/74/68 80/87/68 81/88/68 69/75/68
f 69/75/69 81/88/69 82/89/69 70/76/69
f 70/76/70 82/89/70 83/90/70 71/77/70
f 71/77/71 83/90/71 84/91/71 72/78/71
f 72/78/72 84/91/72 73/79/72 61/66/72
f 73/79/73 85/92/73 86/93/73 74/80/73
f 74/80/74 86/93/74 87/94/74 75/81/74
f 75/81/75 87/94/75 88/95/75 76/82/75
f 76/82/76 88/95/76 89/96/76 77/83/76
f 77/83/77 89/96/77 90/97/77 78/84/77
f 78/84/78 90/97/78 91/98/78 79/85/78
f 79/86/79 91/99/79 92/100/79 80/87/79
f 80/87/80 92/100/80 93/101/80 81/88/80
f 81/88/81 93/101/81 94/102/81 82/89/81
f 82/89/82 94/102/82 95/103/82 83/90/82
f 83/90/83 95/103/83 96/104/83 84/91/83
f 84/91/84 96/104/84 85/92/84 73/79/84
f 85/105/85 97/106/85 98/107/85 86/108/85
f 86/108/86 98/107/86 99/109/86 87/110/86
f 87/110/87 99/109/87 100/111/87 88/112/87
f 88/112/88 100/111/88 101/113/88 89/114/88
f 89/114/89 101/113/89 102/115/89 90/116/89
f 90/116/90 102/115/90 103/117/90 91/118/90
f 91/119/91 103/120/91 104/121/91 92/122/91
f 92/122/92 104/121/92 105/123/92 93/124/92
f 93/124/93 105/123/93 106/125/93 94/126/93
f 94/126/94 106/125/94 107/127/94 95/128/94
f 95/128/95 107/127/95 108/129/95 96/130/95
f 96/130/96 108/129/96 97/106/96 85/105/96
f 97/106/97 109/131/97 110/132/97 98/107/97
f 98/107/98 110/132/98 111/133/98 99/109/98
f 99/109/99 111/133/99 112/134/99 100/111/99
f 100/111/100 112/134/100 113/135/100 101/113/100
f 101/113/101 113/135/101 114/136/101 102/115/101
f 102/115/102 114/136/102 115/137/102 103/117/102
f 103/120/103 115/138/103 116/139/103 104/121/103
f 104/121/104 116/139/104 117/140/104 105/123/104
f 105/123/105 117/140/105 118/141/105 106/125/105
f 106/125/106 118/141/106 119/142/106 107/127/106
f 107/127/107 119/142/107 120/143/107 108/129/107
f 108/129/108 120/143/108 109/131/108 97/106/108
f 109/131/109 121/144/109 122/145/109 110/132/109
f 110/132/110 122/145/110 123/146/110 111/133/110
f 111/133/111 123/146/111 124/147/111 112/134/111
f 112/134/112 124/147/112 125/148/112 113/135/112
f 113/135/113 125/148/113 126/149/113 114/136/113
f 114/136/114 126/149/114 127/150/114 115/137/114
f 115/138/115 127/151/115 128/152/115 116/139/115
f 116/139/116 128/152/116 129/153/116 117/140/116
f 117/140/117 129/153/117 130/154/117 118/141/117
f 118/141/118 130/154/118 131/155/118 119/142/118
f 119/142/119 131/155/119 132/156/119 120/143/119
f 120/143/120 132/156/120 121/144/120 109/131/120
f 121/144/121 133/157/121 134/158/121 122/145/121
f 122/145/122 134/158/122 135/159/122 123/146/122
f 123/146/123 135/159/123 136/160/123 124/147/123
f 124/147/124 136/160/124 137/161/124 125/148/124
f 125/148/125 137/161/125 138/162/125 126/149/125
f 126/149/126 138/162/126 139/163/126 127/150/126
f 127/151/127 139/164/127 140/165/127 128/152/127
f 128/152/128 140/165/128 141/166/128 129/153/128
f 129/153/129 141/166/129 142/167/129 130/154/129
f 130/154/130 142/167/130 143/168/130 131/155/130
f 131/155/131 143/168/131 144/169/131 132/156/131
f 132/156/132 144/169/132 133/157/132 121/144/132
f 133/157/133 145/170/133 146/171/133 134/158/133
f 134/158/134 146/171/134 147/172/134 135/159/134
f 135/159/135 147/172/135 148/173/135 136/160/135
f 136/160/136 148/173/136 149/174/136 137/161/136
f 137/161/137 149/174/137 150/175/137 138/162/137
f 138/162/138 150/175/138 151/176/138 139/163/138
f 139/164/139 151/177/139 152/178/139 140/165/139
f 140/165/140 152/178/140 153/179/140 141/166/140
f 141/166/141 153/179/141 154/180/141 142/167/141
f 142/167/142 154/180/142 155/181/142 143/168/142
f 143/168/143 155/181/143 156/182/143 144/169/143
f 144/169/144 156/182/144 145/170/144 133/157/144
f 145/170/145 157/183/145 158/184/145 146/171/145
f 146/171/146 158/184/146 159/185/146 147/172/146
f 147/172/147 159/185/147 160/186/147 148/173/147
f 148/173/148 160/186/148 161/187/148 149/174/148
f 149/174/149 161/187/149 162/188/149 150/175/149
f 150/175/150 162/188/150 163/189/150 151/176/150
f 151/177/151 163/190/151 164/191/151 152/178/151
f 152/178/152 164/191/152 165/192/152 153/179/152
f 153/179/153 165/192/153 166/193/153 154/180/153
f 154/180/154 166/193/154 167/194/154 155/181/154
f 155/181/155 167/194/155 168/195/155 156/182/155
f 156/182/156 168/195/156 157/183/156 145/170/156
f 157/183/157 169/196/157 170/197/157 158/184/157
f 158/184/158 170/197/158 171/198/158 159/185/158
f 159/185/159 171/198/159 172/199/159 160/186/159
f 160/186/160 172/199/160 173/200/160 161/187/160
f 161/187/161 173/200/161 174/201/161 162/188/161
f 162/188/162 174/201/162 175/202/162 163/189/162
f 163/190/163 175/203/163 176/204/163 164/191/163
f 164/191/164 176/204/164 177/205/164 165/192/164
f 165/192/165 177/205/165 178/206/165 166/193/165
f 166/193/166 178/206/166 179/207/166 167/194/166
f 167/194/167 179/207/167 180/208/167 168/195/167
f 168/195/168 180/208/168 169/196/168 157/183/168
f 169/196/169 1/1/169 2/4/169 170/197/169
f 170/197/170 2/4/170 3/6/170 171/198/170
f 171/198/171 3/6/171 4/8/171 172/199/171
f 172/199/172 4/8/172 5/10/172 173/200/172
f 173/200/173 5/10/173 6/12/173 174/201/173
f 174/201/174 6/12/174 7/14/174 175/202/174
f 175/203/175 7/15/175 8/18/175 176/204/175
f 176/204/176 8/18/176 9/20/176 177/205/176
f 177/205/177 9/20/177 10/22/177 178/206/177
f 178/206/178 10/22/178 11/24/178 179/207/178
f 179/207/179 11/24/179 12/26/179 180/208/179
f 180/208/180 12/26/180 1/1/180 169/196/180
